<svg width="40" height="45" viewBox="0 0 40 45" fill="none" xmlns="http://www.w3.org/2000/svg">
<g clip-path="url(#clip0_17_56)">
<mask id="path-1-inside-1_17_56" fill="white">
<path d="M2 18.2653C2 17.1607 2.89543 16.2653 4 16.2653H35C36.1046 16.2653 37 17.1607 37 18.2653V40C37 42.7614 34.7614 45 32 45H7C4.23858 45 2 42.7614 2 40V18.2653Z"/>
</mask>
<path d="M2 18.2653C2 17.1607 2.89543 16.2653 4 16.2653H35C36.1046 16.2653 37 17.1607 37 18.2653V40C37 42.7614 34.7614 45 32 45H7C4.23858 45 2 42.7614 2 40V18.2653Z" fill="white" stroke="#D9D9D9" stroke-width="6" mask="url(#path-1-inside-1_17_56)"/>
<path fill-rule="evenodd" clip-rule="evenodd" d="M8.00004 11.0641C8.00004 5.50584 13.1488 1 19.5 1C25.8513 1 31 5.50584 31 11.0641V16.2653C31 16.2653 25.0846 16.2653 18.7334 16.2653C12.3821 16.2653 8.00003 16.2653 8.00003 16.2653L8.00004 11.0641ZM19.5 3.44245C15.1544 3.44245 11.6316 7.26107 11.6316 11.0641L11.6316 15.0441H19.6211H27.3685V11.0641C27.3685 7.26107 23.8456 3.44245 19.5 3.44245Z" fill="#D9D9D9" stroke="#D9D9D9" stroke-width="3"/>
</g>
<defs>
<clipPath id="clip0_17_56">
<rect width="40" height="45" fill="white"/>
</clipPath>
</defs>
</svg>
