<svg width="150" height="70" viewBox="0 0 150 70" fill="none" xmlns="http://www.w3.org/2000/svg">
<g clip-path="url(#clip0_115_1253)">
<path d="M4 13H49V58H4V13Z" fill="#344966"/>
<path d="M15 23H27.0312C29.1146 23 30.944 23.4102 32.5195 24.2305C34.108 25.0508 35.332 26.2161 36.1914 27.7266C37.0638 29.237 37.5 30.9753 37.5 32.9414C37.5 34.9336 37.0508 36.6719 36.1523 38.1562C35.2669 39.6276 34.0169 40.7669 32.4023 41.5742C30.7877 42.3815 28.9127 42.7852 26.7773 42.7852H19.4922V36.9648H25.332C26.2565 36.9648 27.0508 36.8021 27.7148 36.4766C28.3789 36.151 28.8802 35.6888 29.2187 35.0898C29.5703 34.4909 29.7461 33.7747 29.7461 32.9414C29.7461 32.1081 29.5703 31.3919 29.2187 30.793C28.8802 30.194 28.3789 29.7383 27.7148 29.4258C27.0638 29.1133 26.2695 28.957 25.332 28.957H22.4219V56H15V23Z" fill="white"/>
<path d="M126.977 64.3984C125.219 64.3984 123.663 64.1445 122.309 63.6367C120.954 63.1419 119.88 62.4193 119.086 61.4688C118.305 60.5182 117.855 59.3854 117.738 58.0703H121.977C122.185 59.0599 122.725 59.8021 123.598 60.2969C124.483 60.7917 125.629 61.0391 127.035 61.0391C128.754 61.0391 130.082 60.6549 131.02 59.8867C131.957 59.1185 132.426 57.9271 132.426 56.3125V52.1523H132.172C131.82 52.7904 131.423 53.3568 130.98 53.8516C130.538 54.3333 129.9 54.763 129.066 55.1406C128.233 55.5052 127.217 55.6875 126.02 55.6875C124.34 55.6875 122.823 55.2773 121.469 54.457C120.128 53.6367 119.066 52.4323 118.285 50.8438C117.517 49.2552 117.133 47.3607 117.133 45.1602C117.133 42.9596 117.517 41.0586 118.285 39.457C119.053 37.8424 120.108 36.6185 121.449 35.7852C122.803 34.9388 124.34 34.5156 126.059 34.5156C127.257 34.5156 128.266 34.7109 129.086 35.1016C129.906 35.4922 130.512 35.9154 130.902 36.3711C131.293 36.8268 131.729 37.4388 132.211 38.207H132.465V34.7891H136.566V56.4688C136.566 58.2135 136.156 59.6784 135.336 60.8633C134.516 62.0612 133.389 62.9466 131.957 63.5195C130.525 64.1055 128.865 64.3984 126.977 64.3984ZM126.938 52.2305C128.109 52.2305 129.112 51.9505 129.945 51.3906C130.779 50.8307 131.41 50.0365 131.84 49.0078C132.27 47.9661 132.484 46.7161 132.484 45.2578C132.484 43.8125 132.27 42.5495 131.84 41.4688C131.41 40.375 130.779 39.5352 129.945 38.9492C129.125 38.3633 128.122 38.0703 126.938 38.0703C125.753 38.0703 124.743 38.3828 123.91 39.0078C123.077 39.6198 122.445 40.4727 122.016 41.5664C121.586 42.6471 121.371 43.8776 121.371 45.2578C121.371 46.651 121.586 47.875 122.016 48.9297C122.445 49.9714 123.077 50.7852 123.91 51.3711C124.743 51.944 125.753 52.2305 126.938 52.2305Z" fill="#344966"/>
<path d="M99.4374 56H95.2773V34.7891H99.2617V38.2461H99.5351C100.056 37.0612 100.837 36.1432 101.879 35.4922C102.934 34.8411 104.242 34.5156 105.805 34.5156C107.263 34.5156 108.526 34.8216 109.594 35.4336C110.674 36.0326 111.508 36.931 112.094 38.1289C112.693 39.3268 112.992 40.7852 112.992 42.5039V56H108.832V42.9922C108.832 41.9766 108.656 41.1042 108.305 40.375C107.953 39.6458 107.445 39.0924 106.781 38.7148C106.117 38.3242 105.31 38.1289 104.359 38.1289C103.396 38.1289 102.543 38.3372 101.801 38.7539C101.059 39.1576 100.479 39.763 100.063 40.5703C99.6458 41.3646 99.4374 42.3151 99.4374 43.4219V56Z" fill="#344966"/>
<path d="M86.0195 34.7891H90.1797V56H86.0195V34.7891ZM88.0899 31.5078C87.6211 31.5078 87.1849 31.4036 86.7813 31.1953C86.3776 30.974 86.0586 30.6745 85.8242 30.2969C85.5899 29.9062 85.4727 29.4896 85.4727 29.0469C85.4727 28.5911 85.5899 28.181 85.8242 27.8164C86.0586 27.4388 86.3776 27.1393 86.7813 26.918C87.1849 26.6966 87.6211 26.5859 88.0899 26.5859C88.5846 26.5859 89.0339 26.6966 89.4375 26.918C89.8412 27.1393 90.1537 27.4388 90.375 27.8164C90.6094 28.181 90.7266 28.5911 90.7266 29.0469C90.7266 29.4896 90.6094 29.9062 90.375 30.2969C90.1537 30.6745 89.8412 30.974 89.4375 31.1953C89.0339 31.4036 88.5846 31.5078 88.0899 31.5078Z" fill="#344966"/>
<path d="M68.5977 43.7344H69.3398L77.7578 34.7891H82.7383L73.0898 45.0233H72.4258L68.6367 48.8125L68.5977 43.7344ZM64.8086 27.7188H68.9687V56H64.8086V27.7188ZM70.6289 45.9608L73.4805 43.0312L83.3047 56H78.207L70.6289 45.9608Z" fill="#344966"/>
<path d="M51 34.7891H55.0234V38.1875H55.2578C55.6354 37.0156 56.3125 36.1042 57.2891 35.4531C58.2656 34.7891 59.3659 34.457 60.5898 34.457C61.2409 34.457 61.8398 34.4961 62.3867 34.5742V38.5586C62.2174 38.4935 61.9115 38.4349 61.4687 38.3828C61.026 38.3177 60.6029 38.2852 60.1992 38.2852C59.2617 38.2852 58.4089 38.4935 57.6406 38.9102C56.8724 39.3138 56.2669 39.8802 55.8242 40.6094C55.3815 41.3385 55.1602 42.1589 55.1602 43.0703V56H51V34.7891Z" fill="#344966"/>
<path d="M42.6524 46.4531C42.3139 46.4531 41.2527 46.5182 39.4688 46.6484L37.3595 46.8047C35.9532 46.9089 34.8594 47.2344 34.0781 47.7812C33.3099 48.3281 32.9258 49.1094 32.9258 50.125C32.9258 50.7891 33.0951 51.349 33.4337 51.8047C33.7722 52.2474 34.2475 52.5924 34.8595 52.8398C35.4714 53.0742 36.1679 53.1914 36.9492 53.1914C38.056 53.1914 39.0131 52.9766 39.8204 52.5469C40.6407 52.1042 41.2722 51.5182 41.7149 50.7891C42.1576 50.0469 42.3789 49.2526 42.3789 48.4062L42.3595 41.7266C42.3595 40.9193 42.1967 40.2357 41.8712 39.6758C41.5587 39.1029 41.0768 38.6732 40.4258 38.3867C39.7747 38.0872 38.9804 37.9375 38.0429 37.9375C36.858 37.9375 35.8881 38.1849 35.1329 38.6797C34.3907 39.1615 33.9088 39.8125 33.6875 40.6328H29.5078C29.651 39.4479 30.0937 38.3997 30.8359 37.4883C31.5781 36.5768 32.5807 35.8672 33.8438 35.3594C35.1068 34.8385 36.5521 34.5781 38.1797 34.5781C39.5469 34.5781 40.8424 34.7865 42.0664 35.2031C43.3034 35.6068 44.3515 36.362 45.2109 37.4688C46.0703 38.5625 46.5 40.0664 46.5 41.9805V56.0625H42.4571V53.1523H42.3008C42.0143 53.7383 41.5976 54.2852 41.0508 54.793C40.504 55.3008 39.8008 55.7174 38.9414 56.043C38.095 56.3685 37.1185 56.5312 36.0117 56.5312C34.6445 56.5312 33.4206 56.2773 32.3399 55.7695C31.2592 55.2617 30.4062 54.5195 29.7812 53.543C29.1562 52.5664 28.8438 51.4141 28.8438 50.0859C28.8438 47.8724 29.5859 46.2969 31.0703 45.3594C32.5677 44.4219 34.4687 43.8815 36.7734 43.7383C37.0859 43.6992 38.323 43.6211 40.4845 43.5039L42.6133 43.4258L42.6524 46.4531Z" fill="white"/>
</g>
<defs>
<clipPath id="clip0_115_1253">
<rect width="150" height="70" fill="white"/>
</clipPath>
</defs>
</svg>
