<svg width="150" height="70" viewBox="0 0 150 70" fill="none" xmlns="http://www.w3.org/2000/svg">
<g clip-path="url(#clip0_198_5152)">
<path d="M133.977 60.3984C132.219 60.3984 130.663 60.1445 129.309 59.6367C127.954 59.1419 126.88 58.4193 126.086 57.4688C125.305 56.5182 124.855 55.3854 124.738 54.0703H128.977C129.185 55.0599 129.725 55.8021 130.598 56.2969C131.483 56.7917 132.629 57.0391 134.035 57.0391C135.754 57.0391 137.082 56.6549 138.02 55.8867C138.957 55.1185 139.426 53.9271 139.426 52.3125V48.1523H139.172C138.82 48.7904 138.423 49.3568 137.98 49.8516C137.538 50.3333 136.9 50.763 136.066 51.1406C135.233 51.5052 134.217 51.6875 133.02 51.6875C131.34 51.6875 129.823 51.2773 128.469 50.457C127.128 49.6367 126.066 48.4323 125.285 46.8438C124.517 45.2552 124.133 43.3607 124.133 41.1602C124.133 38.9596 124.517 37.0586 125.285 35.457C126.053 33.8424 127.108 32.6185 128.449 31.7852C129.803 30.9388 131.34 30.5156 133.059 30.5156C134.257 30.5156 135.266 30.7109 136.086 31.1016C136.906 31.4922 137.512 31.9154 137.902 32.3711C138.293 32.8268 138.729 33.4388 139.211 34.207H139.465V30.7891H143.566V52.4688C143.566 54.2135 143.156 55.6784 142.336 56.8633C141.516 58.0612 140.389 58.9466 138.957 59.5195C137.525 60.1055 135.865 60.3984 133.977 60.3984ZM133.938 48.2305C135.109 48.2305 136.112 47.9505 136.945 47.3906C137.779 46.8307 138.41 46.0365 138.84 45.0078C139.27 43.9661 139.484 42.7161 139.484 41.2578C139.484 39.8125 139.27 38.5495 138.84 37.4688C138.41 36.375 137.779 35.5352 136.945 34.9492C136.125 34.3633 135.122 34.0703 133.938 34.0703C132.753 34.0703 131.743 34.3828 130.91 35.0078C130.077 35.6198 129.445 36.4727 129.016 37.5664C128.586 38.6471 128.371 39.8776 128.371 41.2578C128.371 42.651 128.586 43.875 129.016 44.9297C129.445 45.9714 130.077 46.7852 130.91 47.3711C131.743 47.944 132.753 48.2305 133.938 48.2305Z" fill="white"/>
<path d="M106.438 52H102.277V30.7891H106.262V34.2461H106.535C107.056 33.0612 107.837 32.1432 108.879 31.4922C109.934 30.8411 111.242 30.5156 112.805 30.5156C114.263 30.5156 115.526 30.8216 116.594 31.4336C117.674 32.0326 118.508 32.931 119.094 34.1289C119.693 35.3268 119.992 36.7852 119.992 38.5039V52H115.832V38.9922C115.832 37.9766 115.656 37.1042 115.305 36.375C114.953 35.6458 114.445 35.0924 113.781 34.7148C113.117 34.3242 112.31 34.1289 111.359 34.1289C110.396 34.1289 109.543 34.3372 108.801 34.7539C108.059 35.1576 107.479 35.763 107.062 36.5703C106.646 37.3646 106.438 38.3151 106.438 39.4219V52Z" fill="white"/>
<path d="M93.0195 30.7891H97.1797V52H93.0195V30.7891ZM95.0898 27.5078C94.6211 27.5078 94.1849 27.4036 93.7812 27.1953C93.3776 26.974 93.0586 26.6745 92.8242 26.2969C92.5898 25.9062 92.4727 25.4896 92.4727 25.0469C92.4727 24.5911 92.5898 24.181 92.8242 23.8164C93.0586 23.4388 93.3776 23.1393 93.7812 22.918C94.1849 22.6966 94.6211 22.5859 95.0898 22.5859C95.5846 22.5859 96.0339 22.6966 96.4375 22.918C96.8411 23.1393 97.1536 23.4388 97.375 23.8164C97.6094 24.181 97.7266 24.5911 97.7266 25.0469C97.7266 25.4896 97.6094 25.9062 97.375 26.2969C97.1536 26.6745 96.8411 26.974 96.4375 27.1953C96.0339 27.4036 95.5846 27.5078 95.0898 27.5078Z" fill="white"/>
<path d="M75.5977 39.7344H76.3398L84.7578 30.7891H89.7383L80.0898 41.0234H79.4258L75.6367 44.8125L75.5977 39.7344ZM71.8086 23.7188H75.9688V52H71.8086V23.7188ZM77.6289 41.9609L80.4805 39.0312L90.3047 52H85.207L77.6289 41.9609Z" fill="white"/>
<path d="M57.2773 30.7891H61.3008V34.1875H61.5352C61.9128 33.0156 62.5898 32.1042 63.5664 31.4531C64.543 30.7891 65.6432 30.457 66.8672 30.457C67.5182 30.457 68.1172 30.4961 68.6641 30.5742V34.5586C68.4948 34.4935 68.1888 34.4349 67.7461 34.3828C67.3034 34.3177 66.8802 34.2852 66.4766 34.2852C65.5391 34.2852 64.6862 34.4935 63.918 34.9102C63.1497 35.3138 62.5443 35.8802 62.1016 36.6094C61.6589 37.3385 61.4375 38.1589 61.4375 39.0703V52H57.2773V30.7891Z" fill="white"/>
<path fill-rule="evenodd" clip-rule="evenodd" d="M37.4101 36.5703H39.3867C39.6081 35.75 40.0898 35.099 40.832 34.6172C41.5872 34.1224 42.5573 33.875 43.7422 33.875C44.6797 33.875 45.474 34.0247 46.125 34.3242C46.776 34.6107 47.2578 35.0404 47.5703 35.6133C47.8958 36.1732 48.0586 36.8568 48.0586 37.6641L48.0636 39.3724L46.1836 39.4414C44.0221 39.5586 42.7852 39.6367 42.4727 39.6758C40.168 39.819 38.2669 40.3594 36.7695 41.2969C35.2852 42.2344 34.543 43.8099 34.543 46.0234C34.543 47.3516 34.8555 48.5039 35.4805 49.4805C36.1055 50.457 36.9583 51.1992 38.0391 51.707C39.1198 52.2148 40.3438 52.4688 41.7109 52.4688C42.8177 52.4688 43.7943 52.306 44.6406 51.9805C45.5 51.6549 46.2031 51.2383 46.75 50.7305C47.2969 50.2227 47.7135 49.6758 48 49.0898H48.1562V52H52.1992V37.918C52.1992 36.0039 51.7695 34.5 50.9102 33.4062C50.0508 32.2995 49.0026 31.5443 47.7656 31.1406C46.5417 30.724 45.2461 30.5156 43.8789 30.5156C43.2937 30.5156 42.732 30.5493 42.1939 30.6166C41.9698 31.5327 41.6226 32.3793 41.1523 33.1562C40.2684 34.6252 39.021 35.7633 37.4101 36.5703ZM48.0724 42.398C47.5734 42.4184 46.6053 42.481 45.168 42.5859L43.0586 42.7422C41.6523 42.8464 40.5586 43.1719 39.7773 43.7188C39.0091 44.2656 38.625 45.0469 38.625 46.0625C38.625 46.7266 38.7943 47.2865 39.1328 47.7422C39.4714 48.1849 39.9466 48.5299 40.5586 48.7773C41.1706 49.0117 41.8672 49.1289 42.6484 49.1289C43.7552 49.1289 44.7122 48.9141 45.5195 48.4844C46.3398 48.0417 46.9714 47.4557 47.4141 46.7266C47.8568 45.9844 48.0781 45.1901 48.0781 44.3438L48.0724 42.398Z" fill="white"/>
<path d="M20 16.5H19.5V17V50V50.5H20H27.4219H27.9219V50V37.2852H31.7773C33.9763 37.2852 35.9303 36.8692 37.6259 36.0214C39.3206 35.1741 40.6435 33.9712 41.5804 32.4146C42.5326 30.8413 43 29.0109 43 26.9414C43 24.8995 42.5463 23.0733 41.6252 21.4779C40.7167 19.8817 39.4208 18.6497 37.7498 17.7866C36.0917 16.9235 34.1808 16.5 32.0312 16.5H20ZM30.332 30.4648H27.9219V23.457H30.332C31.2161 23.457 31.932 23.6046 32.4985 23.8765L32.4985 23.8766L32.5019 23.8782C33.0789 24.1497 33.4994 24.5364 33.7835 25.039L33.7834 25.039L33.7875 25.0461C34.0858 25.5542 34.2461 26.1792 34.2461 26.9414C34.2461 27.7036 34.0858 28.3286 33.7875 28.8367L33.7875 28.8367L33.7835 28.8438C33.4983 29.3483 33.0754 29.743 32.4948 30.0276C31.9142 30.3122 31.1988 30.4648 30.332 30.4648Z" fill="#344966" stroke="url(#paint0_linear_198_5152)"/>
</g>
<defs>
<linearGradient id="paint0_linear_198_5152" x1="31" y1="20.5" x2="47" y2="31" gradientUnits="userSpaceOnUse">
<stop stop-color="white"/>
</linearGradient>
<clipPath id="clip0_198_5152">
<rect width="150" height="70" fill="white"/>
</clipPath>
</defs>
</svg>
