<svg width="40" height="45" viewBox="0 0 40 45" fill="none" xmlns="http://www.w3.org/2000/svg">
<g clip-path="url(#clip0_17_54)">
<path d="M29.5 11.5C29.5 17.0228 25.0228 21.5 19.5 21.5C13.9772 21.5 9.5 17.0228 9.5 11.5C9.5 5.97715 13.9772 1.5 19.5 1.5C25.0228 1.5 29.5 5.97715 29.5 11.5Z" fill="white" stroke="#D9D9D9" stroke-width="3"/>
<path fill-rule="evenodd" clip-rule="evenodd" d="M35.8031 42.5C35.2527 38.3351 33.5695 34.4949 31.0215 31.5549C27.883 27.9336 23.7262 26 19.5 26C15.2738 26 11.117 27.9336 7.97849 31.5549C5.43052 34.4948 3.74734 38.3351 3.19691 42.5L35.8031 42.5ZM38.826 42.5C38.2594 37.6402 36.3272 33.0962 33.2886 29.5901C29.6316 25.3705 24.6717 23 19.5 23C14.3283 23 9.36838 25.3705 5.71142 29.5901C2.67281 33.0962 0.74059 37.6402 0.174033 42.5C0.0587392 43.489 0 44.491 0 45.5L39 45.5C39 44.491 38.9413 43.489 38.826 42.5Z" fill="#D9D9D9"/>
</g>
<defs>
<clipPath id="clip0_17_54">
<rect width="40" height="45" fill="white"/>
</clipPath>
</defs>
</svg>
